<svg id="Layer_1" data-name="Layer 1" xmlns="http://www.w3.org/2000/svg" viewBox="0 0 1024 842.23"><defs><style>.cls-1{fill:#ffc79f;}.cls-2{fill:#b38f73;}.cls-3{fill:#36393f;}</style></defs><title>pfp-june-2020</title><path class="cls-1" d="M705.51,295.65c6.34,350.22-41.58,389.34-110.4,392.09-86.4,3.82-137.62-23.78-149.73-86.28H395.9V283l283-5.07Z" transform="translate(0 -181.77)"/><path class="cls-2" d="M706.07,317.86l5.78-23.48a278,278,0,0,1-48.22-82.47c-30.68-5.71-58.49-13.52-82.47-24.11C510.1,161.15,401,227.13,349,303.27l-5.08,167.49h48.22L404.78,467c-.73-25.15,20.65-47.93,50.75-69.79l12.69-46.94L456.8,310.88c56.26-6.37,111.32-12.94,138.31-24.11C626.93,310,664.72,318.39,706.07,317.86Z" transform="translate(0 -181.77)"/><path class="cls-1" d="M397.16,472c-74.86-106.59-77.4,83.75,0,92.63Z" transform="translate(0 -181.77)"/><path class="cls-1" d="M395.9,601.46v46.95c-12.33,21.16-30.35,40.86-52,59.63l19,88.83,163.69,33,130.7-29.19,25.38-67.25L624.28,683.2l-178.9-81.74Z" transform="translate(0 -181.77)"/><path class="cls-3" d="M83.75,865.39C45.93,898.28,24.43,974.4,0,1024H1024C948.75,919.25,864.19,801.82,808.29,753.72c-70.41-20.92-134.56-43.62-187.54-69.49,29.35,51.61-3.15,90.89-78.93,121.52C441.58,814.63,318.49,722,358.16,695l4.44-4.38" transform="translate(0 -181.77)"/></svg>